<?xml version="1.0" encoding="UTF-8" standalone="no"?>
<!-- Created with Inkscape (http://www.inkscape.org/) -->

<svg
   xmlns:dc="http://purl.org/dc/elements/1.1/"
   xmlns:cc="http://creativecommons.org/ns#"
   xmlns:rdf="http://www.w3.org/1999/02/22-rdf-syntax-ns#"
   xmlns:svg="http://www.w3.org/2000/svg"
   xmlns="http://www.w3.org/2000/svg"
   xmlns:sodipodi="http://sodipodi.sourceforge.net/DTD/sodipodi-0.dtd"
   xmlns:inkscape="http://www.inkscape.org/namespaces/inkscape"
   version="1.1"
   width="55"
   height="55"
   viewBox="0 0 55 55"
   id="svg2"
   xml:space="preserve"
   inkscape:version="0.48.4 r9939"
   sodipodi:docname="ChainIcon.svg"
   inkscape:export-filename="/home/manuq/prog/gearsketch/site/img/ChainIcon.png"
   inkscape:export-xdpi="104.72727"
   inkscape:export-ydpi="104.72727"><sodipodi:namedview
     pagecolor="#ffffff"
     bordercolor="#666666"
     borderopacity="1"
     objecttolerance="10"
     gridtolerance="10"
     guidetolerance="10"
     inkscape:pageopacity="0"
     inkscape:pageshadow="2"
     inkscape:window-width="1024"
     inkscape:window-height="541"
     id="namedview3098"
     showgrid="true"
     inkscape:zoom="4.0796963"
     inkscape:cx="49.934177"
     inkscape:cy="17.627787"
     inkscape:window-x="0"
     inkscape:window-y="27"
     inkscape:window-maximized="1"
     inkscape:current-layer="svg2"
     inkscape:snap-global="false"><inkscape:grid
       type="xygrid"
       id="grid3386"
       empspacing="5"
       visible="true"
       enabled="true"
       snapvisiblegridlinesonly="true"
       spacingx="11px"
       spacingy="11px" /></sodipodi:namedview><metadata
     id="metadata21"><rdf:RDF><cc:Work
         rdf:about=""><dc:format>image/svg+xml</dc:format><dc:type
           rdf:resource="http://purl.org/dc/dcmitype/StillImage" /><dc:title></dc:title></cc:Work></rdf:RDF></metadata><defs
     id="defs19" /><g
     id="g5763"
     transform="translate(-0.60426075,0.51003058)"><path
       id="path3108"
       stroke-miterlimit="10"
       d="m 26.060162,41.938742 0,0 2.201843,3.327292 -1.046751,1.084243 -3.402686,-2.083434 -0.906899,0.592346 0.540135,3.95313 -1.413525,0.522702 -2.161748,-3.35348 -1.074099,0.140196 -1.228556,3.796003 -1.500333,-0.142369 -0.492644,-3.959327 -1.028559,-0.33972 -2.753913,2.887029 -1.289982,-0.77924 1.27403,-3.780983 L 10.997174,43.05078 7.2633495,44.457024 6.4392137,43.195252 9.227581,40.341486 8.85189,39.325514 4.8776826,38.972452 4.6826261,37.478053 8.433061,36.116727 8.535388,35.038362 5.1079386,32.99592 5.5805929,31.564882 9.550277,31.965622 10.110355,31.038447 7.9085125,27.711155 8.955263,26.626912 12.35795,28.710347 13.264849,28.118 l -0.540134,-3.95313 1.413526,-0.522701 2.161746,3.35348 1.074098,-0.140197 1.228555,-3.796002 1.500334,0.142368 0.492645,3.959328 1.028558,0.33972 2.753914,-2.887029 1.289983,0.779239 -1.27403,3.780982 0.7793,0.752352 3.733825,-1.406245 0.824134,1.261772 -2.788367,2.853767 0.375691,1.015971 3.974208,0.353063 0.195058,1.494398 -3.750436,1.361326 -0.102327,1.078365 3.427448,2.042442 -0.472654,1.431038 -3.969682,-0.400739 z"
       inkscape:connector-curvature="0"
       style="fill:#000000;stroke:none" /><path
       style="fill:#000000;stroke:none"
       inkscape:connector-curvature="0"
       id="path4918"
       stroke-miterlimit="10"
       d="m 34.67939,8.7589883 0,0 -0.398418,-3.9683881 1.449169,-0.4633334 1.977713,3.4634511 1.06256,-0.072142 1.49142,-3.6989876 1.498498,0.2632016 0.141631,3.9858227 0.974377,0.4299172 3.039591,-2.5821934 1.204539,0.9294401 -1.726896,3.5950905 0.662975,0.833488 3.89143,-0.87385 0.634633,1.382756 -3.199812,2.380766 0.199694,1.046116 3.851789,1.034682 -0.08066,1.519298 -3.93969,0.621037 -0.309334,1.019092 2.929748,2.706181 -0.777472,1.307787 -3.777032,-1.280964 -0.747498,0.758607 1.336538,3.757726 -1.296176,0.796679 -2.749103,-2.889512 -1.014419,0.324333 -0.562856,3.948422 -1.517942,0.103061 -1.091386,-3.836107 -1.048949,-0.184242 -2.333307,3.234582 -1.391966,-0.614168 0.816353,-3.903896 -0.843176,-0.650608 -3.569227,1.779737 -0.947106,-1.190697 2.537076,-3.07735 -0.444243,-0.967929 -3.987478,-0.08282 -0.285277,-1.494453 3.676585,-1.54582 0.05646,-1.063508 -3.492247,-1.92641 0.441907,-1.455846 3.973833,0.339838 0.544231,-0.915451 -2.196984,-3.3286791 1.067855,-1.083724 3.360723,2.1476442 z" /><path
       sodipodi:nodetypes="szzsszzzss"
       inkscape:connector-curvature="0"
       id="path5041"
       d="M 47.096053,24.290375 C 49.47163,21.827916 50.744871,18.454416 50.142398,14.123369 49.539925,9.7923217 45.417498,6.2188764 41.65414,5.2995262 37.890782,4.3801761 33.868156,5.6918135 31.171452,8.0992081 L 10.519912,26.535197 c -3.4050983,3.03979 -4.7528356,5.985048 -4.5890755,10.480919 0.1637601,4.495871 1.9105133,6.860195 4.1240825,8.81071 2.213569,1.950515 4.848398,3.211845 8.543095,3.146072 3.694697,-0.06577 6.319639,-1.692996 8.823405,-4.288332 z"
       style="fill:none;stroke:#0000ff;stroke-width:2.5;stroke-linecap:butt;stroke-linejoin:miter;stroke-miterlimit:10;stroke-dasharray:none" /></g></svg>