<svg width="108px" height="108px" viewPort="0 0 108 108"><path d="M 34.5,0 L 34.5,0 L 47.69818607487564,5.374294852958777 L 46.796539784727536,10.681004829903092 L 32.56397489563868,11.394627637453265 L 31.08342594263346,14.968988999555755 L 40.64276156295764,25.537539672736155 L 37.52791115846543,29.92751048921921 L 24.39518395093589,24.395183950935888 L 21.510398164126308,26.97318614514703 L 25.537539672736155,40.64276156295764 L 20.826419477642794,43.24650565931612 L 11.394627637453267,32.56397489563868 L 7.676972221492848,33.63501297027292 L 5.37429485295878,47.69818607487564 L 2.9390552491737054e-15,48 L -3.862774425564119,34.28307124131687 L -7.676972221492845,33.63501297027292 L -15.853394973848015,45.30639985480164 L -20.826419477642787,43.24650565931612 L -18.35510663977911,29.211984873375805 L -21.510398164126304,26.973186145147032 L -33.94112549695428,33.941125496954285 L -37.52791115846543,29.927510489219213 L -29.2119848733758,18.355106639779116 L -31.083425942633458,14.968988999555759 L -45.30639985480164,15.853394973848026 L -46.796539784727536,10.681004829903095 L -34.28307124131687,3.862774425564125 L -34.5,4.2248919206872015e-15 L -47.69818607487564,-5.374294852958771 L -46.796539784727536,-10.681004829903085 L -32.56397489563868,-11.39462763745326 L -31.08342594263346,-14.968988999555751 L -40.642761562957645,-25.537539672736152 L -37.527911158465436,-29.927510489219202 L -24.395183950935895,-24.395183950935888 L -21.51039816412631,-26.973186145147025 L -25.53753967273616,-40.64276156295764 L -20.826419477642798,-43.246505659316114 L -11.39462763745327,-32.56397489563868 L -7.6769722214928535,-33.63501297027292 L -5.374294852958785,-47.69818607487564 L -8.817165747521116e-15,-48 L 3.862774425564115,-34.28307124131687 L 7.676972221492841,-33.63501297027292 L 15.85339497384801,-45.30639985480164 L 20.82641947764278,-43.24650565931613 L 18.355106639779105,-29.211984873375805 L 21.5103981641263,-26.973186145147032 L 33.94112549695427,-33.941125496954285 L 37.52791115846543,-29.927510489219216 L 29.211984873375798,-18.35510663977912 L 31.083425942633458,-14.968988999555762 L 45.30639985480164,-15.853394973848031 L 46.79653978472753,-10.681004829903102 L 34.28307124131687,-3.862774425564129 z" opacity="1" fill="rgb(255,255,255)" fill-opacity="0.8" stroke="none" transform="translate(54, 54) rotate(0)"></path><path d="M 34.5,0 L 34.5,0 L 47.69818607487564,5.374294852958777 L 46.796539784727536,10.681004829903092 L 32.56397489563868,11.394627637453265 L 31.08342594263346,14.968988999555755 L 40.64276156295764,25.537539672736155 L 37.52791115846543,29.92751048921921 L 24.39518395093589,24.395183950935888 L 21.510398164126308,26.97318614514703 L 25.537539672736155,40.64276156295764 L 20.826419477642794,43.24650565931612 L 11.394627637453267,32.56397489563868 L 7.676972221492848,33.63501297027292 L 5.37429485295878,47.69818607487564 L 2.9390552491737054e-15,48 L -3.862774425564119,34.28307124131687 L -7.676972221492845,33.63501297027292 L -15.853394973848015,45.30639985480164 L -20.826419477642787,43.24650565931612 L -18.35510663977911,29.211984873375805 L -21.510398164126304,26.973186145147032 L -33.94112549695428,33.941125496954285 L -37.52791115846543,29.927510489219213 L -29.2119848733758,18.355106639779116 L -31.083425942633458,14.968988999555759 L -45.30639985480164,15.853394973848026 L -46.796539784727536,10.681004829903095 L -34.28307124131687,3.862774425564125 L -34.5,4.2248919206872015e-15 L -47.69818607487564,-5.374294852958771 L -46.796539784727536,-10.681004829903085 L -32.56397489563868,-11.39462763745326 L -31.08342594263346,-14.968988999555751 L -40.642761562957645,-25.537539672736152 L -37.527911158465436,-29.927510489219202 L -24.395183950935895,-24.395183950935888 L -21.51039816412631,-26.973186145147025 L -25.53753967273616,-40.64276156295764 L -20.826419477642798,-43.246505659316114 L -11.39462763745327,-32.56397489563868 L -7.6769722214928535,-33.63501297027292 L -5.374294852958785,-47.69818607487564 L -8.817165747521116e-15,-48 L 3.862774425564115,-34.28307124131687 L 7.676972221492841,-33.63501297027292 L 15.85339497384801,-45.30639985480164 L 20.82641947764278,-43.24650565931613 L 18.355106639779105,-29.211984873375805 L 21.5103981641263,-26.973186145147032 L 33.94112549695427,-33.941125496954285 L 37.52791115846543,-29.927510489219216 L 29.211984873375798,-18.35510663977912 L 31.083425942633458,-14.968988999555762 L 45.30639985480164,-15.853394973848031 L 46.79653978472753,-10.681004829903102 L 34.28307124131687,-3.862774425564129 z" opacity="1" fill="none" stroke="black" stroke-width="2" stroke-linecap="butt" stroke-linejoin="miter" stroke-miterlimit="10" transform="translate(54, 54) rotate(0)"></path><path d="M 9,0 L 9,0 A 9,9 180 0,0 -9,1.1021457184401395e-15 L -9,1.1021457184401395e-15 A 9,9 180 0,0 9,-2.204291436880279e-15 M 9,-2.204291436880279e-15 z" opacity="1" fill="none" stroke="black" stroke-width="2" stroke-linecap="butt" stroke-linejoin="miter" stroke-miterlimit="10" transform="translate(54, 54) rotate(0)"></path><path d="M 9,0 L 34.5,0 z" opacity="1" fill="none" stroke="black" stroke-width="2" stroke-linecap="butt" stroke-linejoin="miter" stroke-miterlimit="10" transform="translate(54, 54) rotate(0)"></path></svg>
