<svg width="102px" height="102px" viewPort="0 0 102 102"><path d="M 31.5,0 L 31.5,0 L 44.67189933441243,5.424150611489537 L 43.69238178417234,10.769204892940099 L 29.453011644590568,11.170053941839871 L 27.89186480807611,14.638779919378708 L 37.03427396521454,25.562913602902007 L 33.68298366769955,29.840519620835778 L 20.888363734585052,23.578088567389685 L 17.894039522031413,25.923991775650176 L 20.912542741969588,39.84552115439445 L 15.957219916914111,42.07573092084366 L 7.538443425058071,30.58466724892064 L 3.7969054280426815,31.2703295340887 L 2.755364296100349e-15,45 L -5.424150611489529,44.67189933441243 L -7.538443425058068,30.58466724892064 L -11.170053941839868,29.453011644590568 L -20.91254274196958,39.84552115439445 L -25.562913602902007,37.03427396521454 L -20.88836373458504,23.578088567389692 L -23.578088567389678,20.88836373458506 L -37.03427396521454,25.56291360290201 L -39.84552115439444,20.91254274196959 L -29.453011644590564,11.170053941839878 L -30.584667248920635,7.53844342505808 L -44.67189933441243,5.424150611489558 L -45,5.510728592200698e-15 L -31.2703295340887,-3.796905428042669 L -30.584667248920642,-7.538443425058059 L -42.075730920843675,-15.957219916914086 L -39.84552115439445,-20.91254274196958 L -25.92399177565018,-17.894039522031402 L -23.578088567389692,-20.88836373458504 L -29.8405196208358,-33.68298366769954 L -25.562913602902018,-37.03427396521454 L -14.638779919378727,-27.8918648080761 L -11.17005394183988,-29.453011644590564 L -10.769204892940099,-43.69238178417234 L -5.424150611489561,-44.67189933441243 L -5.7862650218107325e-15,-31.5 L 3.796905428042653,-31.270329534088702 L 10.769204892940081,-43.69238178417235 L 15.9572199169141,-42.07573092084367 L 14.638779919378692,-27.891864808076118 L 17.894039522031402,-25.923991775650183 L 29.84051962083576,-33.682983667699574 L 33.68298366769953,-29.8405196208358 L 25.923991775650176,-17.894039522031413 L 27.8918648080761,-14.63877991937873 L 42.07573092084366,-15.957219916914118 L 43.69238178417233,-10.76920489294014 L 31.2703295340887,-3.7969054280426944 z" opacity="1" fill="rgb(255,255,255)" fill-opacity="0.8" stroke="none" transform="translate(51, 51) rotate(0)"></path><path d="M 31.5,0 L 31.5,0 L 44.67189933441243,5.424150611489537 L 43.69238178417234,10.769204892940099 L 29.453011644590568,11.170053941839871 L 27.89186480807611,14.638779919378708 L 37.03427396521454,25.562913602902007 L 33.68298366769955,29.840519620835778 L 20.888363734585052,23.578088567389685 L 17.894039522031413,25.923991775650176 L 20.912542741969588,39.84552115439445 L 15.957219916914111,42.07573092084366 L 7.538443425058071,30.58466724892064 L 3.7969054280426815,31.2703295340887 L 2.755364296100349e-15,45 L -5.424150611489529,44.67189933441243 L -7.538443425058068,30.58466724892064 L -11.170053941839868,29.453011644590568 L -20.91254274196958,39.84552115439445 L -25.562913602902007,37.03427396521454 L -20.88836373458504,23.578088567389692 L -23.578088567389678,20.88836373458506 L -37.03427396521454,25.56291360290201 L -39.84552115439444,20.91254274196959 L -29.453011644590564,11.170053941839878 L -30.584667248920635,7.53844342505808 L -44.67189933441243,5.424150611489558 L -45,5.510728592200698e-15 L -31.2703295340887,-3.796905428042669 L -30.584667248920642,-7.538443425058059 L -42.075730920843675,-15.957219916914086 L -39.84552115439445,-20.91254274196958 L -25.92399177565018,-17.894039522031402 L -23.578088567389692,-20.88836373458504 L -29.8405196208358,-33.68298366769954 L -25.562913602902018,-37.03427396521454 L -14.638779919378727,-27.8918648080761 L -11.17005394183988,-29.453011644590564 L -10.769204892940099,-43.69238178417234 L -5.424150611489561,-44.67189933441243 L -5.7862650218107325e-15,-31.5 L 3.796905428042653,-31.270329534088702 L 10.769204892940081,-43.69238178417235 L 15.9572199169141,-42.07573092084367 L 14.638779919378692,-27.891864808076118 L 17.894039522031402,-25.923991775650183 L 29.84051962083576,-33.682983667699574 L 33.68298366769953,-29.8405196208358 L 25.923991775650176,-17.894039522031413 L 27.8918648080761,-14.63877991937873 L 42.07573092084366,-15.957219916914118 L 43.69238178417233,-10.76920489294014 L 31.2703295340887,-3.7969054280426944 z" opacity="1" fill="none" stroke="black" stroke-width="2" stroke-linecap="butt" stroke-linejoin="miter" stroke-miterlimit="10" transform="translate(51, 51) rotate(0)"></path><path d="M 9,0 L 9,0 A 9,9 180 0,0 -9,1.1021457184401395e-15 L -9,1.1021457184401395e-15 A 9,9 180 0,0 9,-2.204291436880279e-15 M 9,-2.204291436880279e-15 z" opacity="1" fill="none" stroke="black" stroke-width="2" stroke-linecap="butt" stroke-linejoin="miter" stroke-miterlimit="10" transform="translate(51, 51) rotate(0)"></path><path d="M 9,0 L 31.5,0 z" opacity="1" fill="none" stroke="black" stroke-width="2" stroke-linecap="butt" stroke-linejoin="miter" stroke-miterlimit="10" transform="translate(51, 51) rotate(0)"></path></svg>
