<svg width="174px" height="174px" viewPort="0 0 174 174"><path d="M 67.5,0 L 67.5,0 L 80.84016500269,5.086032081874383 L 80.36129080647271,10.151991918708646 L 66.30438942418648,12.648238734536413 L 65.3793633761826,16.7865673836277 L 77.03557781990743,25.03037654437074 L 75.31189535694836,29.818088767458917 L 61.07582604145632,28.74010218064241 L 59.15070090296079,32.51837300186578 L 68.39056196566322,43.40197039329873 L 65.53037654437074,47.610605435690324 L 52.00964388736577,43.026119308036556 L 49.20538235094528,46.20692965018649 L 55.44831558022378,59.04645882113434 L 51.63134316964386,62.41157266483893 L 39.67550452974193,54.60864712030895 L 36.168308661082264,56.992134971386015 L 39.02204760223893,70.98084108355296 L 34.48812261677089,73.29099124974759 L 24.848407306215755,62.75991279745698 L 20.85864712030895,64.19631484992286 L 20.143880860353235,78.45523605141912 L 15.177886481443686,79.56526730902378 L 8.459993265590537,66.96774233872726 L 4.238360068228648,67.36680416890833 L -1.3025957265946908e-14,81 L -5.086032081874386,80.84016500269 L -8.459993265590544,66.96774233872725 L -12.648238734536426,66.30438942418648 L -20.143880860353242,78.45523605141912 L -25.030376544370753,77.03557781990743 L -24.848407306215762,62.75991279745696 L -28.74010218064241,61.07582604145632 L -39.02204760223895,70.98084108355295 L -43.40197039329875,68.39056196566321 L -39.67550452974193,54.60864712030895 L -43.026119308036556,52.009643887365776 L -55.448315580223785,59.04645882113433 L -59.046458821134344,55.44831558022377 L -52.00964388736578,43.02611930803654 L -54.608647120308945,39.67550452974194 L -68.39056196566322,43.40197039329873 L -70.98084108355295,39.022047602238935 L -61.075826041456324,28.740102180642392 L -62.75991279745698,24.848407306215748 L -77.03557781990745,25.030376544370718 L -78.45523605141912,20.143880860353242 L -66.30438942418648,12.64823873453641 L -66.96774233872726,8.459993265590526 L -80.84016500269,5.0860320818743645 L -81,-2.6051914531893816e-14 L -67.36680416890833,-4.238360068228651 L -66.96774233872726,-8.459993265590539 L -79.56526730902378,-15.177886481443705 L -78.45523605141912,-20.143880860353256 L -64.19631484992286,-20.858647120308973 L -62.759912797456956,-24.848407306215787 L -73.29099124974758,-34.48812261677089 L -70.98084108355295,-39.02204760223895 L -56.99213497138601,-36.16830866108228 L -54.60864712030894,-39.67550452974195 L -62.411572664838914,-51.631343169643884 L -59.04645882113434,-55.448315580223785 L -46.20692965018648,-49.20538235094528 L -43.02611930803654,-52.00964388736578 L -47.61060543569033,-65.53037654437074 L -43.401970393298704,-68.39056196566324 L -32.51837300186578,-59.15070090296079 L -28.74010218064237,-61.07582604145634 L -29.818088767458903,-75.31189535694837 L -25.030376544370753,-77.03557781990743 L -16.786567383627673,-65.37936337618261 L -12.648238734536413,-66.30438942418648 L -10.151991918708601,-80.36129080647271 L -5.08603208187437,-80.84016500269 L -1.239913933245157e-14,-67.5 L 4.238360068228676,-67.36680416890833 L 10.151991918708642,-80.36129080647271 L 15.177886481443736,-79.56526730902378 L 16.78656738362771,-65.3793633761826 L 20.858647120308937,-64.19631484992287 L 29.81808876745894,-75.31189535694836 L 34.48812261677088,-73.29099124974759 L 32.51837300186581,-59.15070090296078 L 36.16830866108228,-56.99213497138601 L 47.61060543569037,-65.53037654437071 L 51.631343169643884,-62.411572664838914 L 46.20692965018648,-49.20538235094528 L 49.2053823509453,-46.20692965018646 L 62.411572664838936,-51.63134316964386 L 65.53037654437077,-47.61060543569028 L 56.99213497138603,-36.16830866108225 L 59.15070090296079,-32.51837300186578 L 73.29099124974759,-34.48812261677085 L 75.31189535694837,-29.818088767458907 L 64.19631484992289,-20.85864712030891 L 65.37936337618261,-16.786567383627677 L 79.56526730902378,-15.1778864814437 L 80.36129080647271,-10.151991918708607 L 67.36680416890833,-4.238360068228645 z" opacity="1" fill="rgb(255,255,255)" fill-opacity="0.8" stroke="none" transform="translate(87, 87) rotate(0)"></path><path d="M 67.5,0 L 67.5,0 L 80.84016500269,5.086032081874383 L 80.36129080647271,10.151991918708646 L 66.30438942418648,12.648238734536413 L 65.3793633761826,16.7865673836277 L 77.03557781990743,25.03037654437074 L 75.31189535694836,29.818088767458917 L 61.07582604145632,28.74010218064241 L 59.15070090296079,32.51837300186578 L 68.39056196566322,43.40197039329873 L 65.53037654437074,47.610605435690324 L 52.00964388736577,43.026119308036556 L 49.20538235094528,46.20692965018649 L 55.44831558022378,59.04645882113434 L 51.63134316964386,62.41157266483893 L 39.67550452974193,54.60864712030895 L 36.168308661082264,56.992134971386015 L 39.02204760223893,70.98084108355296 L 34.48812261677089,73.29099124974759 L 24.848407306215755,62.75991279745698 L 20.85864712030895,64.19631484992286 L 20.143880860353235,78.45523605141912 L 15.177886481443686,79.56526730902378 L 8.459993265590537,66.96774233872726 L 4.238360068228648,67.36680416890833 L -1.3025957265946908e-14,81 L -5.086032081874386,80.84016500269 L -8.459993265590544,66.96774233872725 L -12.648238734536426,66.30438942418648 L -20.143880860353242,78.45523605141912 L -25.030376544370753,77.03557781990743 L -24.848407306215762,62.75991279745696 L -28.74010218064241,61.07582604145632 L -39.02204760223895,70.98084108355295 L -43.40197039329875,68.39056196566321 L -39.67550452974193,54.60864712030895 L -43.026119308036556,52.009643887365776 L -55.448315580223785,59.04645882113433 L -59.046458821134344,55.44831558022377 L -52.00964388736578,43.02611930803654 L -54.608647120308945,39.67550452974194 L -68.39056196566322,43.40197039329873 L -70.98084108355295,39.022047602238935 L -61.075826041456324,28.740102180642392 L -62.75991279745698,24.848407306215748 L -77.03557781990745,25.030376544370718 L -78.45523605141912,20.143880860353242 L -66.30438942418648,12.64823873453641 L -66.96774233872726,8.459993265590526 L -80.84016500269,5.0860320818743645 L -81,-2.6051914531893816e-14 L -67.36680416890833,-4.238360068228651 L -66.96774233872726,-8.459993265590539 L -79.56526730902378,-15.177886481443705 L -78.45523605141912,-20.143880860353256 L -64.19631484992286,-20.858647120308973 L -62.759912797456956,-24.848407306215787 L -73.29099124974758,-34.48812261677089 L -70.98084108355295,-39.02204760223895 L -56.99213497138601,-36.16830866108228 L -54.60864712030894,-39.67550452974195 L -62.411572664838914,-51.631343169643884 L -59.04645882113434,-55.448315580223785 L -46.20692965018648,-49.20538235094528 L -43.02611930803654,-52.00964388736578 L -47.61060543569033,-65.53037654437074 L -43.401970393298704,-68.39056196566324 L -32.51837300186578,-59.15070090296079 L -28.74010218064237,-61.07582604145634 L -29.818088767458903,-75.31189535694837 L -25.030376544370753,-77.03557781990743 L -16.786567383627673,-65.37936337618261 L -12.648238734536413,-66.30438942418648 L -10.151991918708601,-80.36129080647271 L -5.08603208187437,-80.84016500269 L -1.239913933245157e-14,-67.5 L 4.238360068228676,-67.36680416890833 L 10.151991918708642,-80.36129080647271 L 15.177886481443736,-79.56526730902378 L 16.78656738362771,-65.3793633761826 L 20.858647120308937,-64.19631484992287 L 29.81808876745894,-75.31189535694836 L 34.48812261677088,-73.29099124974759 L 32.51837300186581,-59.15070090296078 L 36.16830866108228,-56.99213497138601 L 47.61060543569037,-65.53037654437071 L 51.631343169643884,-62.411572664838914 L 46.20692965018648,-49.20538235094528 L 49.2053823509453,-46.20692965018646 L 62.411572664838936,-51.63134316964386 L 65.53037654437077,-47.61060543569028 L 56.99213497138603,-36.16830866108225 L 59.15070090296079,-32.51837300186578 L 73.29099124974759,-34.48812261677085 L 75.31189535694837,-29.818088767458907 L 64.19631484992289,-20.85864712030891 L 65.37936337618261,-16.786567383627677 L 79.56526730902378,-15.1778864814437 L 80.36129080647271,-10.151991918708607 L 67.36680416890833,-4.238360068228645 z" opacity="1" fill="none" stroke="black" stroke-width="2" stroke-linecap="butt" stroke-linejoin="miter" stroke-miterlimit="10" transform="translate(87, 87) rotate(0)"></path><path d="M 9,0 L 9,0 A 9,9 180 0,0 -9,1.1021457184401395e-15 L -9,1.1021457184401395e-15 A 9,9 180 0,0 9,-2.204291436880279e-15 M 9,-2.204291436880279e-15 z" opacity="1" fill="none" stroke="black" stroke-width="2" stroke-linecap="butt" stroke-linejoin="miter" stroke-miterlimit="10" transform="translate(87, 87) rotate(0)"></path><path d="M 9,0 L 67.5,0 z" opacity="1" fill="none" stroke="black" stroke-width="2" stroke-linecap="butt" stroke-linejoin="miter" stroke-miterlimit="10" transform="translate(87, 87) rotate(0)"></path></svg>
