<?xml version="1.0" encoding="UTF-8" standalone="no"?>
<!-- Created with Inkscape (http://www.inkscape.org/) -->

<svg
   xmlns:dc="http://purl.org/dc/elements/1.1/"
   xmlns:cc="http://creativecommons.org/ns#"
   xmlns:rdf="http://www.w3.org/1999/02/22-rdf-syntax-ns#"
   xmlns:svg="http://www.w3.org/2000/svg"
   xmlns="http://www.w3.org/2000/svg"
   xmlns:sodipodi="http://sodipodi.sourceforge.net/DTD/sodipodi-0.dtd"
   xmlns:inkscape="http://www.inkscape.org/namespaces/inkscape"
   version="1.1"
   width="55"
   height="55"
   viewBox="0 0 55 55"
   id="svg2"
   xml:space="preserve"
   inkscape:version="0.48.4 r9939"
   sodipodi:docname="GearIcon.svg"
   inkscape:export-filename="/home/manuq/prog/gearsketch/site/img/GearIcon.png"
   inkscape:export-xdpi="104.72727"
   inkscape:export-ydpi="104.72727"><sodipodi:namedview
     pagecolor="#ffffff"
     bordercolor="#666666"
     borderopacity="1"
     objecttolerance="10"
     gridtolerance="10"
     guidetolerance="10"
     inkscape:pageopacity="0"
     inkscape:pageshadow="2"
     inkscape:window-width="1024"
     inkscape:window-height="541"
     id="namedview3098"
     showgrid="true"
     inkscape:zoom="4.0281638"
     inkscape:cx="34.608807"
     inkscape:cy="12.868384"
     inkscape:window-x="0"
     inkscape:window-y="27"
     inkscape:window-maximized="1"
     inkscape:current-layer="svg2"><inkscape:grid
       type="xygrid"
       id="grid3386"
       empspacing="5"
       visible="true"
       enabled="true"
       snapvisiblegridlinesonly="true"
       spacingx="11px"
       spacingy="11px" /></sodipodi:namedview><metadata
     id="metadata21"><rdf:RDF><cc:Work
         rdf:about=""><dc:format>image/svg+xml</dc:format><dc:type
           rdf:resource="http://purl.org/dc/dcmitype/StillImage" /><dc:title></dc:title></cc:Work></rdf:RDF></metadata><defs
     id="defs19" /><path
     style="fill:#000000;stroke:none"
     inkscape:connector-curvature="0"
     d="m 45.27961,18.924785 0,0 1.746897,3.978435 -1.483962,0.945239 -2.866949,-3.264998 -1.015039,0.224952 -1.219087,4.170546 -1.744366,-0.229778 -0.09751,-4.343973 -0.922159,-0.480131 -3.61465,2.411207 -1.188566,-1.297276 2.717552,-3.390357 -0.397793,-0.960553 -4.318875,-0.476361 -0.07662,-1.757768 4.261045,-0.850353 0.312703,-0.991523 -3.002251,-3.1410358 1.071177,-1.3957764 3.810748,2.0875392 0.876883,-0.5585501 -0.28084,-4.3359821 1.717756,-0.3806887 1.577357,4.04865 1.030763,0.1357774 2.571977,-3.502077 1.560582,0.8125284 -1.394095,4.1153501 0.702334,0.766573 4.221338,-1.02951 0.673193,1.625554 -3.713236,2.256436 0.04527,1.038676 3.895493,1.924778 -0.529195,1.677964 -4.294909,-0.658292 z"
     stroke-miterlimit="10"
     id="path3124" /><path
     style="fill:#000000;stroke:none"
     inkscape:connector-curvature="0"
     d="m 36.768374,31.760347 0,0 4.059375,1.599488 -0.208971,1.587312 -4.335036,0.494343 -0.37311,1.183355 3.26751,2.891415 -0.739264,1.420112 -4.242673,-1.018138 -0.755342,0.984379 2.081532,3.834594 -1.180389,1.081627 -3.638584,-2.40782 -1.046465,0.666672 0.644491,4.315267 -1.479139,0.612681 -2.595631,-3.50708 -1.21137,0.268555 -0.870285,4.275452 -1.599485,0.06984 -1.239605,-4.183335 -1.230165,-0.161953 -2.280092,3.719957 -1.526909,-0.481432 0.265939,-4.355018 -1.100587,-0.57293 -3.414886,2.715779 -1.270166,-0.974631 1.739404,-4.00142 L 11.65021,40.902613 7.5124162,42.286651 6.6521944,40.936372 9.6552657,37.771178 9.1804401,36.624845 4.8188185,36.510206 4.4722951,34.947147 l 3.904524,-1.947199 -0.05412,-1.239601 -4.0593786,-1.599485 0.2089748,-1.587315 4.3350356,-0.49434 0.3731094,-1.183359 -3.2675091,-2.891411 0.7392634,-1.420115 4.2426766,1.01814 0.755339,-0.984379 -2.0815323,-3.834595 1.1803893,-1.081627 3.638584,2.407819 1.046468,-0.666672 -0.644494,-4.315267 1.479142,-0.61268 2.595628,3.507079 1.211373,-0.268555 0.870282,-4.275453 1.599488,-0.06983 1.239601,4.183334 1.230169,0.161954 2.280089,-3.719957 1.526912,0.481433 -0.265939,4.355017 1.100587,0.57293 3.414883,-2.71578 1.270166,0.974633 -1.739404,4.00142 0.838261,0.914802 4.13779,-1.384039 0.860225,1.350278 -3.003074,3.165193 0.474828,1.146333 4.361622,0.11464 0.346524,1.563059 -3.904528,1.947198 z"
     stroke-miterlimit="10"
     id="path3092" /></svg>