<svg width="78px" height="78px" viewPort="0 0 78 78"><path d="M 19.5,0 L 19.5,0 L 32.498655849402866,5.730389863008701 L 31.00985648593498,11.286664729747068 L 16.887495373796554,9.749999999999998 L 14.93786664082007,12.534358388887515 L 21.2119911196558,25.279466622926275 L 16.500000000000004,28.578838324886473 L 6.669392794850542,18.32400610532521 L 3.3861394645051432,19.203751183738056 L 2.0206004838069225e-15,33 L -5.7303898630087,32.498655849402866 L -6.66939279485054,18.324006105325214 L -9.749999999999996,16.887495373796554 L -21.2119911196558,25.279466622926275 L -25.27946662292627,21.211991119655803 L -16.887495373796554,9.749999999999998 L -18.32400610532521,6.669392794850543 L -32.498655849402866,5.730389863008713 L -33,4.041200967613845e-15 L -19.20375118373806,-3.3861394645051357 L -18.324006105325214,-6.6693927948505385 L -28.57883832488648,-16.49999999999999 L -25.279466622926275,-21.211991119655796 L -12.53435838888752,-14.937866640820069 L -9.750000000000009,-16.887495373796547 L -11.28666472974709,-31.00985648593497 L -5.730389863008701,-32.498655849402866 L -3.5819735849304535e-15,-19.5 L 3.3861394645051344,-19.20375118373806 L 11.286664729747049,-31.009856485934982 L 16.500000000000004,-28.578838324886473 L 12.534358388887515,-14.937866640820074 L 14.937866640820067,-12.534358388887522 L 28.578838324886465,-16.500000000000014 L 31.009856485934968,-11.286664729747091 L 19.203751183738056,-3.3861394645051424 z" opacity="1" fill="rgb(255,255,255)" fill-opacity="0.8" stroke="none" transform="translate(39, 39) rotate(0)"></path><path d="M 19.5,0 L 19.5,0 L 32.498655849402866,5.730389863008701 L 31.00985648593498,11.286664729747068 L 16.887495373796554,9.749999999999998 L 14.93786664082007,12.534358388887515 L 21.2119911196558,25.279466622926275 L 16.500000000000004,28.578838324886473 L 6.669392794850542,18.32400610532521 L 3.3861394645051432,19.203751183738056 L 2.0206004838069225e-15,33 L -5.7303898630087,32.498655849402866 L -6.66939279485054,18.324006105325214 L -9.749999999999996,16.887495373796554 L -21.2119911196558,25.279466622926275 L -25.27946662292627,21.211991119655803 L -16.887495373796554,9.749999999999998 L -18.32400610532521,6.669392794850543 L -32.498655849402866,5.730389863008713 L -33,4.041200967613845e-15 L -19.20375118373806,-3.3861394645051357 L -18.324006105325214,-6.6693927948505385 L -28.57883832488648,-16.49999999999999 L -25.279466622926275,-21.211991119655796 L -12.53435838888752,-14.937866640820069 L -9.750000000000009,-16.887495373796547 L -11.28666472974709,-31.00985648593497 L -5.730389863008701,-32.498655849402866 L -3.5819735849304535e-15,-19.5 L 3.3861394645051344,-19.20375118373806 L 11.286664729747049,-31.009856485934982 L 16.500000000000004,-28.578838324886473 L 12.534358388887515,-14.937866640820074 L 14.937866640820067,-12.534358388887522 L 28.578838324886465,-16.500000000000014 L 31.009856485934968,-11.286664729747091 L 19.203751183738056,-3.3861394645051424 z" opacity="1" fill="none" stroke="black" stroke-width="2" stroke-linecap="butt" stroke-linejoin="miter" stroke-miterlimit="10" transform="translate(39, 39) rotate(0)"></path><path d="M 9,0 L 9,0 A 9,9 180 0,0 -9,1.1021457184401395e-15 L -9,1.1021457184401395e-15 A 9,9 180 0,0 9,-2.204291436880279e-15 M 9,-2.204291436880279e-15 z" opacity="1" fill="none" stroke="black" stroke-width="2" stroke-linecap="butt" stroke-linejoin="miter" stroke-miterlimit="10" transform="translate(39, 39) rotate(0)"></path><path d="M 9,0 L 19.5,0 z" opacity="1" fill="none" stroke="black" stroke-width="2" stroke-linecap="butt" stroke-linejoin="miter" stroke-miterlimit="10" transform="translate(39, 39) rotate(0)"></path></svg>
