<svg width="132px" height="132px" viewPort="0 0 132 132"><path d="M 46.5,0 L 46.5,0 L 59.771681885504734,5.22934456485949 L 59.088465180732484,10.418890660015819 L 44.915550922441675,12.035085597267214 L 43.69570686654474,15.903936664643595 L 54.378467222199,25.357095704441967 L 51.96152422706632,29.999999999999996 L 38.09057005943812,26.67130429032364 L 35.621066605032475,29.889623850424076 L 42.42640687119285,42.426406871192846 L 38.56725658119236,45.96266658713868 L 26.671304290323647,38.09057005943812 L 23.250000000000004,40.2701812759764 L 25.357095704441967,54.378467222199 L 20.52120859954013,56.3815572471545 L 12.035085597267214,44.915550922441675 L 8.074640261512265,45.793560515067675 L 5.229344564859502,59.771681885504734 L 3.673819061467132e-15,60 L -4.052742037766097,46.32305346126617 L -8.07464026151226,45.793560515067675 L -15.529142706151237,57.9555495773441 L -20.521208599540124,56.381557247154504 L -19.65174917094252,42.14331209720423 L -23.24999999999999,40.2701812759764 L -34.41458618106275,49.14912265733952 L -38.56725658119236,45.96266658713868 L -32.880465325174455,32.88046532517446 L -35.621066605032475,29.889623850424087 L -49.1491226573395,34.41458618106278 L -51.96152422706632,29.999999999999996 L -42.14331209720422,19.651749170942526 L -43.69570686654474,15.903936664643602 L -57.955549577344094,15.52914270615126 L -59.088465180732484,10.418890660015842 L -46.32305346126617,4.052742037766106 L -46.5,5.694419545274054e-15 L -59.771681885504734,-5.229344564859477 L -59.088465180732484,-10.418890660015801 L -44.915550922441675,-12.035085597267217 L -43.69570686654474,-15.903936664643593 L -54.378467222199006,-25.357095704441956 L -51.96152422706633,-29.999999999999982 L -38.09057005943813,-26.67130429032363 L -35.621066605032475,-29.889623850424076 L -42.42640687119286,-42.426406871192846 L -38.56725658119237,-45.96266658713867 L -26.671304290323658,-38.09057005943811 L -23.25000000000002,-40.270181275976384 L -25.357095704441996,-54.378467222198985 L -20.521208599540163,-56.38155724715449 L -12.035085597267209,-44.915550922441675 L -8.074640261512261,-45.793560515067675 L -5.229344564859495,-59.771681885504734 L -1.1021457184401395e-14,-60 L 4.052742037766092,-46.32305346126617 L 8.074640261512243,-45.793560515067675 L 15.529142706151218,-57.95554957734411 L 20.52120859954009,-56.38155724715451 L 19.651749170942495,-42.14331209720424 L 23.250000000000004,-40.2701812759764 L 34.41458618106276,-49.14912265733951 L 38.56725658119235,-45.962666587138685 L 32.88046532517445,-32.88046532517447 L 35.62106660503247,-29.88962385042409 L 49.1491226573395,-34.41458618106279 L 51.961524227066306,-30.00000000000003 L 42.14331209720421,-19.65174917094255 L 43.695706866544725,-15.903936664643629 L 57.9555495773441,-15.52914270615124 L 59.088465180732484,-10.418890660015823 L 46.32305346126617,-4.052742037766111 z" opacity="1" fill="rgb(255,255,255)" fill-opacity="0.8" stroke="none" transform="translate(66, 66) rotate(0)"></path><path d="M 46.5,0 L 46.5,0 L 59.771681885504734,5.22934456485949 L 59.088465180732484,10.418890660015819 L 44.915550922441675,12.035085597267214 L 43.69570686654474,15.903936664643595 L 54.378467222199,25.357095704441967 L 51.96152422706632,29.999999999999996 L 38.09057005943812,26.67130429032364 L 35.621066605032475,29.889623850424076 L 42.42640687119285,42.426406871192846 L 38.56725658119236,45.96266658713868 L 26.671304290323647,38.09057005943812 L 23.250000000000004,40.2701812759764 L 25.357095704441967,54.378467222199 L 20.52120859954013,56.3815572471545 L 12.035085597267214,44.915550922441675 L 8.074640261512265,45.793560515067675 L 5.229344564859502,59.771681885504734 L 3.673819061467132e-15,60 L -4.052742037766097,46.32305346126617 L -8.07464026151226,45.793560515067675 L -15.529142706151237,57.9555495773441 L -20.521208599540124,56.381557247154504 L -19.65174917094252,42.14331209720423 L -23.24999999999999,40.2701812759764 L -34.41458618106275,49.14912265733952 L -38.56725658119236,45.96266658713868 L -32.880465325174455,32.88046532517446 L -35.621066605032475,29.889623850424087 L -49.1491226573395,34.41458618106278 L -51.96152422706632,29.999999999999996 L -42.14331209720422,19.651749170942526 L -43.69570686654474,15.903936664643602 L -57.955549577344094,15.52914270615126 L -59.088465180732484,10.418890660015842 L -46.32305346126617,4.052742037766106 L -46.5,5.694419545274054e-15 L -59.771681885504734,-5.229344564859477 L -59.088465180732484,-10.418890660015801 L -44.915550922441675,-12.035085597267217 L -43.69570686654474,-15.903936664643593 L -54.378467222199006,-25.357095704441956 L -51.96152422706633,-29.999999999999982 L -38.09057005943813,-26.67130429032363 L -35.621066605032475,-29.889623850424076 L -42.42640687119286,-42.426406871192846 L -38.56725658119237,-45.96266658713867 L -26.671304290323658,-38.09057005943811 L -23.25000000000002,-40.270181275976384 L -25.357095704441996,-54.378467222198985 L -20.521208599540163,-56.38155724715449 L -12.035085597267209,-44.915550922441675 L -8.074640261512261,-45.793560515067675 L -5.229344564859495,-59.771681885504734 L -1.1021457184401395e-14,-60 L 4.052742037766092,-46.32305346126617 L 8.074640261512243,-45.793560515067675 L 15.529142706151218,-57.95554957734411 L 20.52120859954009,-56.38155724715451 L 19.651749170942495,-42.14331209720424 L 23.250000000000004,-40.2701812759764 L 34.41458618106276,-49.14912265733951 L 38.56725658119235,-45.962666587138685 L 32.88046532517445,-32.88046532517447 L 35.62106660503247,-29.88962385042409 L 49.1491226573395,-34.41458618106279 L 51.961524227066306,-30.00000000000003 L 42.14331209720421,-19.65174917094255 L 43.695706866544725,-15.903936664643629 L 57.9555495773441,-15.52914270615124 L 59.088465180732484,-10.418890660015823 L 46.32305346126617,-4.052742037766111 z" opacity="1" fill="none" stroke="black" stroke-width="2" stroke-linecap="butt" stroke-linejoin="miter" stroke-miterlimit="10" transform="translate(66, 66) rotate(0)"></path><path d="M 9,0 L 9,0 A 9,9 180 0,0 -9,1.1021457184401395e-15 L -9,1.1021457184401395e-15 A 9,9 180 0,0 9,-2.204291436880279e-15 M 9,-2.204291436880279e-15 z" opacity="1" fill="none" stroke="black" stroke-width="2" stroke-linecap="butt" stroke-linejoin="miter" stroke-miterlimit="10" transform="translate(66, 66) rotate(0)"></path><path d="M 9,0 L 46.5,0 z" opacity="1" fill="none" stroke="black" stroke-width="2" stroke-linecap="butt" stroke-linejoin="miter" stroke-miterlimit="10" transform="translate(66, 66) rotate(0)"></path></svg>
