<?xml version="1.0" encoding="UTF-8" standalone="no"?>
<!-- Created with Inkscape (http://www.inkscape.org/) -->

<svg
   xmlns:dc="http://purl.org/dc/elements/1.1/"
   xmlns:cc="http://creativecommons.org/ns#"
   xmlns:rdf="http://www.w3.org/1999/02/22-rdf-syntax-ns#"
   xmlns:svg="http://www.w3.org/2000/svg"
   xmlns="http://www.w3.org/2000/svg"
   xmlns:sodipodi="http://sodipodi.sourceforge.net/DTD/sodipodi-0.dtd"
   xmlns:inkscape="http://www.inkscape.org/namespaces/inkscape"
   version="1.1"
   width="55"
   height="55"
   viewBox="0 0 55 55"
   id="svg2"
   xml:space="preserve"
   inkscape:version="0.48.4 r9939"
   sodipodi:docname="MomentumIcon.svg"
   inkscape:export-filename="/home/manuq/prog/gearsketch/site/img/MomentumIcon.png"
   inkscape:export-xdpi="104.72727"
   inkscape:export-ydpi="104.72727"><sodipodi:namedview
     pagecolor="#ffffff"
     bordercolor="#666666"
     borderopacity="1"
     objecttolerance="10"
     gridtolerance="10"
     guidetolerance="10"
     inkscape:pageopacity="0"
     inkscape:pageshadow="2"
     inkscape:window-width="1024"
     inkscape:window-height="541"
     id="namedview3098"
     showgrid="true"
     inkscape:zoom="4.9414238"
     inkscape:cx="30.626401"
     inkscape:cy="33.5337"
     inkscape:window-x="0"
     inkscape:window-y="27"
     inkscape:window-maximized="1"
     inkscape:current-layer="svg2"
     inkscape:snap-global="false"><inkscape:grid
       type="xygrid"
       id="grid3386"
       empspacing="5"
       visible="true"
       enabled="true"
       snapvisiblegridlinesonly="true"
       spacingx="11px"
       spacingy="11px" /></sodipodi:namedview><metadata
     id="metadata21"><rdf:RDF><cc:Work
         rdf:about=""><dc:format>image/svg+xml</dc:format><dc:type
           rdf:resource="http://purl.org/dc/dcmitype/StillImage" /><dc:title></dc:title></cc:Work></rdf:RDF></metadata><defs
     id="defs19" /><path
     d="m 41.448602,29.689863 0,0 5.383005,3.328781 -0.815263,2.272561 -6.271471,-0.852161 -0.934803,1.407995 3.219453,5.449097 -1.777991,1.633382 -5.157093,-3.669049 -1.482051,0.812294 0.318361,6.321089 -2.333403,0.620015 -2.861287,-5.645403 -1.689783,0.03051 -2.655663,5.744995 -2.35426,-0.53539 0.09001,-6.328461 -1.510407,-0.758272 -5.021304,3.852796 L 13.75886,41.806493 16.779541,36.244747 15.794527,34.87141 9.5579,35.949375 8.6611455,33.707719 13.920495,30.186815 13.686531,28.513028 7.663318,26.569214 7.91103,24.167583 l 6.293168,-0.673464 0.570683,-1.590792 -4.429953,-4.520291 1.335431,-2.01142 5.885297,2.32826 1.244593,-1.143368 -1.821845,-6.061221 2.117218,-1.1604181 4.129177,4.7966061 1.633383,-0.43401 1.203622,-6.2136001 2.41398,-0.043577 1.427109,6.1661063 1.647985,0.374776 3.953356,-4.942517 2.157725,1.083246 -1.601889,6.123027 1.285051,1.097702 5.797428,-2.539164 1.407158,1.96191 -4.263914,4.677237 0.627726,1.569159 6.313377,0.445881 0.334234,2.391124 -5.94913,2.159948 z"
     stroke-miterlimit="10"
     id="path4918-3"
     inkscape:connector-curvature="0"
     style="fill:#000000;stroke:#000000;stroke-width:0.88913584;stroke-linecap:butt;stroke-linejoin:miter;stroke-miterlimit:10;stroke-dasharray:none" /><g
     id="g5844"
     transform="matrix(1.201027,0,0,1.201027,-5.2463545,-5.9850843)"
     style="stroke-width:2.08155187;stroke-miterlimit:10;stroke-dasharray:none"><path
       sodipodi:nodetypes="csc"
       inkscape:connector-curvature="0"
       id="path5838"
       d="m 28.923721,4.2609291 c 6.468014,0 12.342617,2.5855272 16.63429,6.7876989 4.291673,4.202172 7.000416,10.020988 7.13671,16.487566"
       style="color:#000000;fill:none;stroke:#ff0000;stroke-width:3.07564145;stroke-linecap:round;stroke-linejoin:round;stroke-miterlimit:10;stroke-dasharray:none;marker:none;visibility:visible;display:inline;overflow:visible;enable-background:accumulate"
       transform="matrix(0.67678626,0,0,0.67678626,7.9248229,8.5248025)" /><path
       sodipodi:nodetypes="ccc"
       inkscape:connector-curvature="0"
       id="rect5841"
       d="m 47.202973,25.588603 -3.602404,3.602403 -3.602403,-3.602403"
       style="color:#000000;fill:none;stroke:#ff0000;stroke-width:2.08155187;stroke-linecap:round;stroke-linejoin:round;stroke-miterlimit:10;stroke-opacity:1;stroke-dasharray:none;stroke-dashoffset:0;marker:none;visibility:visible;display:inline;overflow:visible;enable-background:accumulate" /></g></svg>